#N canvas 518 153 847 613 10;
#X declare -stdpath moonlib;
#X declare -stdpath hcs;
#X declare -stdpath ggee;
#X declare -stdpath zexy;
#X declare -lib zexy;
#X declare -stdpath moonlib ggee;
#X declare -stdpath Fraise;
#X obj 22 237 analog/parse;
#X obj 22 262 route 0 1 2 3;
#X floatatom 22 371 8 0 0 0 - - -, f 8;
#X floatatom 40 345 8 0 0 0 - - -, f 8;
#X floatatom 59 319 8 0 0 0 - - -, f 8;
#X floatatom 78 293 8 0 0 0 - - -, f 8;
#X obj 22 207 fruit/receive fruit1;
#X msg 500 523 L\$1;
#X obj 500 500 tgl 15 0 empty empty set_LED 18 7 0 10 -4034 -1 -1 0
1;
#X obj 500 457 tgl 15 0 empty empty empty 17 7 0 10 -262144 -1 -1 0
1;
#X msg 551 432 20;
#X floatatom 551 454 5 2 1000 0 - - -, f 5;
#X msg 581 431 100;
#X obj 500 476 metro 100;
#X obj 395 549 fruit/send2 fruit1;
#X obj 21 38 pied/pied 0 41424;
#X obj 319 304 hsl 128 15 -1023 1023 0 0 empty empty commande_VitesseA
-2 -8 0 10 -262144 -1 -1 6350 1;
#X obj 459 305 hsl 128 15 -1023 1023 0 0 empty empty commande_VitesseB
-2 -8 0 10 -262144 -1 -1 6350 1;
#X msg 399 250 0;
#X floatatom 136 328 5 0 0 0 - - -, f 5;
#X obj 19 141 fruit/fruit 1 fruit1 10 moteurs;
#X obj 22 399 / 4096;
#X text 41 511 140mV/A \, 4096 @5V;
#X obj 22 419 * 5;
#X obj 22 441 / 0.14;
#X obj 22 474 nbx 5 14 -1e+37 1e+37 0 0 empty empty Amperes 0 -8 0
10 -262144 -1 -1 0.0697545 256;
#X obj 250 50 ramp/ramp fruit1 122 vitesseA;
#X obj 146 288 unpack f f;
#X floatatom 187 326 5 0 0 0 - - -, f 5;
#X obj 549 46 ramp/ramp fruit1 123 vitesseB;
#X msg 316 328 c 122 c 10 i \$1;
#X msg 456 329 c 123 c 10 i \$1;
#X obj 319 370 hsl 128 15 -1023 1023 0 0 empty empty vitesseA -2 -8
0 10 -262144 -1 -1 6350 1;
#X obj 459 371 hsl 128 15 -1023 1023 0 0 empty empty vitesseB -2 -8
0 10 -262144 -1 -1 6350 1;
#X obj 102 400 / 4096;
#X obj 102 420 * 5;
#X obj 102 442 / 0.14;
#X obj 102 475 nbx 5 14 -1e+37 1e+37 0 0 empty empty Amperes 0 -8 0
10 -262144 -1 -1 0.0610352 256;
#X msg 445 507 S;
#X text 443 490 SAVE;
#X obj 146 260 route P T;
#X floatatom 221 249 5 0 0 0 - - -, f 5;
#X floatatom 268 248 5 0 0 0 - - -, f 5;
#X floatatom 310 246 5 0 0 0 - - -, f 5;
#X obj 232 188 bng 15 250 50 0 empty empty empty 17 7 0 10 -262144
-1 -1;
#X obj 222 479 t b b;
#X obj 227 502 timer;
#X floatatom 226 526 5 0 0 0 - - -, f 5;
#X obj 227 544 mavg 10;
#X floatatom 222 566 5 0 0 0 - - -, f 5;
#X msg 611 516 R;
#X text 607 497 time reset;
#X msg 648 325 c 10 c \$1 c \$2 c \$3;
#X obj 648 274 time --------;
#X obj 648 300 pack f f f;
#X obj 649 248 bng 15 250 50 0 empty empty empty 17 7 0 10 -262144
-1 -1;
#X obj 324 170 time --------;
#X obj 325 144 bng 15 250 50 0 empty empty empty 17 7 0 10 -262144
-1 -1;
#X floatatom 322 199 5 0 0 0 - - -, f 5;
#X floatatom 359 196 5 0 0 0 - - -, f 5;
#X floatatom 399 197 5 0 0 0 - - -, f 5;
#X floatatom 574 348 5 0 0 0 - - -, f 5;
#X obj 231 209 unpack f f f f;
#X floatatom 347 245 8 0 0 0 - - -, f 8;
#X floatatom 518 232 5 0 0 0 - - -, f 5;
#X obj 518 179 div 3600;
#X floatatom 584 233 5 0 0 0 - - -, f 5;
#X obj 585 180 div 60;
#X obj 591 207 % 60;
#X obj 637 192 % 60;
#X floatatom 641 217 5 0 0 0 - - -, f 5;
#X obj 518 155 t f f f;
#X obj 102 556 max;
#X obj 129 555 f;
#X floatatom 104 582 5 0 0 0 - - -, f 5;
#X msg 144 527 0;
#X msg 693 399 0 \, 1024 60000;
#X obj 693 425 line;
#X obj 690 469 hsl 128 15 -1023 1023 0 0 empty empty commande_VitesseB
-2 -8 0 10 -262144 -1 -1 0 1;
#X floatatom 734 507 5 0 0 0 - - -, f 5;
#X obj 647 9 declare -stdpath Fraise;
#X msg 645 387 stop;
#X msg 540 559 L1;
#X msg 542 578 L0;
#X msg 658 345 c 10 c 0 c 0 c 0;
#X connect 0 0 1 0;
#X connect 0 1 40 0;
#X connect 1 0 2 0;
#X connect 1 1 3 0;
#X connect 1 2 4 0;
#X connect 1 3 5 0;
#X connect 2 0 21 0;
#X connect 3 0 34 0;
#X connect 6 0 0 0;
#X connect 7 0 14 1;
#X connect 8 0 7 0;
#X connect 9 0 13 0;
#X connect 10 0 11 0;
#X connect 11 0 13 1;
#X connect 12 0 11 0;
#X connect 13 0 8 0;
#X connect 16 0 30 0;
#X connect 17 0 31 0;
#X connect 17 0 61 0;
#X connect 18 0 16 0;
#X connect 18 0 17 0;
#X connect 21 0 23 0;
#X connect 23 0 24 0;
#X connect 24 0 25 0;
#X connect 27 0 19 0;
#X connect 27 0 32 0;
#X connect 27 1 28 0;
#X connect 27 1 33 0;
#X connect 30 0 14 0;
#X connect 31 0 14 0;
#X connect 34 0 35 0;
#X connect 35 0 36 0;
#X connect 36 0 37 0;
#X connect 37 0 72 0;
#X connect 38 0 14 1;
#X connect 40 0 27 0;
#X connect 40 1 44 0;
#X connect 40 1 62 0;
#X connect 45 0 46 0;
#X connect 45 1 46 1;
#X connect 46 0 47 0;
#X connect 47 0 48 0;
#X connect 48 0 49 0;
#X connect 50 0 14 1;
#X connect 52 0 14 0;
#X connect 53 0 54 0;
#X connect 53 1 54 1;
#X connect 53 2 54 2;
#X connect 54 0 52 0;
#X connect 55 0 53 0;
#X connect 56 0 58 0;
#X connect 56 1 59 0;
#X connect 56 2 60 0;
#X connect 57 0 56 0;
#X connect 62 0 41 0;
#X connect 62 1 42 0;
#X connect 62 2 43 0;
#X connect 62 2 45 0;
#X connect 62 3 63 0;
#X connect 63 0 71 0;
#X connect 65 0 64 0;
#X connect 67 0 68 0;
#X connect 68 0 66 0;
#X connect 69 0 70 0;
#X connect 71 0 65 0;
#X connect 71 1 67 0;
#X connect 71 2 69 0;
#X connect 72 0 73 0;
#X connect 72 0 74 0;
#X connect 73 0 72 1;
#X connect 75 0 73 0;
#X connect 76 0 77 0;
#X connect 77 0 78 0;
#X connect 78 0 79 0;
#X connect 81 0 77 0;
#X connect 82 0 14 1;
#X connect 83 0 14 1;
#X connect 84 0 14 0;
