#N canvas 350 292 911 684 10;
#X obj 104 134 text define \$1;
#X obj 104 76 symbol \$1;
#X obj 104 48 bng 15 250 50 0 empty empty empty 17 7 0 10 -262144 -1
-1;
#X obj 104 15 loadbang;
#X text 400 101 24 images/sec;
#X obj 106 342 * 60;
#X obj 106 371 +;
#X obj 138 416 -;
#X obj 106 393 t f f;
#X obj 106 437 s seq-\$1-lasttime;
#X obj 156 394 r seq-\$1-lasttime;
#X obj 138 460 spigot 1;
#X obj 138 483 * 1000;
#X obj 138 506 del;
#X obj 138 602 +;
#X msg 138 554 1;
#X obj 106 208 t f f;
#X obj 205 232 sel 0;
#X msg 205 260 0;
#X obj 205 282 s seq-\$1-lasttime;
#X obj 295 526 list;
#X obj 156 578 r seq-\$1-getline;
#X obj 138 627 s seq-\$1-getline;
#X obj 106 180 r seq-\$1-getline;
#X obj 295 575 s seq-\$1-line;
#X obj 263 198 s seq-\$1-getline;
#X msg 313 152 0;
#X obj 319 610 r seq-\$1-line;
#X obj 319 637 print SEQ;
#X obj 613 337 metro;
#X obj 668 312 /;
#X obj 668 264 loadbang;
#X obj 613 366 i;
#X obj 644 366 + 1;
#X msg 613 308 1;
#X obj 613 280 t b b;
#X msg 797 373 0;
#X obj 342 469 * 60;
#X obj 729 476 mod 24;
#X obj 613 420 div 24;
#X obj 613 393 t f f;
#X obj 613 445 t f f;
#X obj 613 473 div 60;
#X obj 667 471 mod 60;
#X floatatom 615 499 5 0 0 0 - - -, f 5;
#X floatatom 667 493 5 0 0 0 - - -, f 5;
#X floatatom 729 498 5 0 0 0 - - -, f 5;
#X msg 668 286 1000 24;
#X msg 354 260 stop;
#X obj 292 484 bng 15 250 50 0 empty empty empty 17 7 0 10 -262144
-1 -1;
#X obj 295 549 list trim;
#X obj 313 125 inlet go;
#X obj 444 131 inlet stop;
#X obj 612 552 outlet mn;
#X obj 707 555 outlet sec;
#X obj 800 555 outlet frame;
#X obj 552 127 inlet skip;
#X obj 459 537 r seq-\$1-getline;
#X obj 460 562 outlet line-num;
#X msg 552 150 0;
#X floatatom 441 599 5 0 0 0 - - -, f 5;
#X msg 400 438 lumieres_plantes 1 3.07;
#X obj 752 295 r seq-\$1-lasttime;
#X obj 701 338 * 24;
#X obj 138 530 t b b b;
#X obj 384 377 r seq-\$1-lasttime;
#X obj 366 400 f;
#X obj 660 126 inlet reload;
#X obj 106 237 text get \$1;
#X msg 180 79 read -c ../\$1.txt;
#X msg 38 195 0;
#X msg 104 102 read -c ../\$1.txt;
#X msg 72 196 3;
#X obj 76 260 list split 1;
#X obj 106 289 list split 2;
#X obj 106 318 unpack f f;
#X connect 1 0 71 0;
#X connect 2 0 1 0;
#X connect 3 0 2 0;
#X connect 5 0 6 0;
#X connect 6 0 8 0;
#X connect 7 0 11 0;
#X connect 8 0 9 0;
#X connect 8 1 7 0;
#X connect 10 0 7 1;
#X connect 11 0 12 0;
#X connect 12 0 13 0;
#X connect 13 0 64 0;
#X connect 14 0 22 0;
#X connect 15 0 14 0;
#X connect 16 0 68 0;
#X connect 16 1 17 0;
#X connect 17 0 18 0;
#X connect 18 0 19 0;
#X connect 20 0 50 0;
#X connect 21 0 14 1;
#X connect 23 0 16 0;
#X connect 26 0 25 0;
#X connect 26 0 35 0;
#X connect 27 0 28 0;
#X connect 29 0 32 0;
#X connect 30 0 29 1;
#X connect 31 0 47 0;
#X connect 32 0 33 0;
#X connect 32 0 40 0;
#X connect 33 0 32 1;
#X connect 34 0 29 0;
#X connect 35 0 34 0;
#X connect 38 0 46 0;
#X connect 38 0 55 0;
#X connect 39 0 41 0;
#X connect 40 0 39 0;
#X connect 40 1 38 0;
#X connect 41 0 42 0;
#X connect 41 1 43 0;
#X connect 42 0 44 0;
#X connect 42 0 53 0;
#X connect 43 0 45 0;
#X connect 43 0 54 0;
#X connect 47 0 30 0;
#X connect 48 0 13 0;
#X connect 48 0 29 0;
#X connect 49 0 20 0;
#X connect 50 0 24 0;
#X connect 51 0 26 0;
#X connect 52 0 48 0;
#X connect 56 0 59 0;
#X connect 57 0 58 0;
#X connect 57 0 60 0;
#X connect 59 0 13 0;
#X connect 61 0 24 0;
#X connect 63 0 32 1;
#X connect 64 0 15 0;
#X connect 64 1 20 0;
#X connect 64 2 66 0;
#X connect 65 0 66 1;
#X connect 66 0 63 0;
#X connect 67 0 2 0;
#X connect 68 0 73 0;
#X connect 70 0 68 0;
#X connect 71 0 0 0;
#X connect 72 0 68 0;
#X connect 73 1 74 0;
#X connect 74 0 75 0;
#X connect 74 1 20 1;
#X connect 75 0 5 0;
#X connect 75 1 6 1;
