#N canvas 30 647 450 300 10;
#X obj 96 28 r seq-\$1-line;
#X obj 96 66 route \$2;
#X obj 96 102 t a b;
#X obj 96 124 list split 1;
#X obj 136 146 list split 1;
#X obj 96 206 pack f f;
#X msg 231 147 0;
#X obj 96 234 line;
#X obj 96 256 s ramp-\$2;
#X obj 136 168 * 1000;
#X connect 0 0 1 0;
#X connect 1 0 2 0;
#X connect 2 0 3 0;
#X connect 2 1 6 0;
#X connect 3 0 5 0;
#X connect 3 1 4 0;
#X connect 4 0 9 0;
#X connect 5 0 7 0;
#X connect 6 0 5 1;
#X connect 7 0 8 0;
#X connect 9 0 5 1;
